<?xml version="1.0" encoding="UTF-8" standalone="no"?>
<!DOCTYPE svg PUBLIC "-//W3C//DTD SVG 1.1//EN" "http://www.w3.org/Graphics/SVG/1.1/DTD/svg11.dtd">
<svg width="100%" height="100%" viewBox="0 0 565 521" version="1.1" xmlns="http://www.w3.org/2000/svg"
   xmlns:xlink="http://www.w3.org/1999/xlink" xml:space="preserve" xmlns:serif="http://www.serif.com/"
   style="fill-rule:evenodd;clip-rule:evenodd;stroke-linejoin:round;stroke-miterlimit:2;">
   <g transform="matrix(1,0,0,1,-620.345,-572.55)">
      <path
         d="M951.027,904.29L697.38,903.564C596.884,904.479 597.164,761.599 695.746,761.285L948.526,761.459C948.839,761.566 948.908,761.458 948.908,761.458L948.526,761.459C947.927,761.253 946.431,760.255 942.807,756.183C930.737,742.624 872.542,680.386 868.867,673.485C854.833,647.166 860.437,610.252 883.75,590.454C911.588,566.804 951.025,569.218 976.681,595.143C1035.39,654.48 1094.1,713.826 1152.8,773.18C1165.31,785.836 1173.27,795.569 1176.67,802.377C1189.46,827.93 1184.48,859.401 1163.99,880.197C1106.17,938.947 1048.28,997.635 990.324,1056.26C975.609,1071.15 964.691,1080.47 957.571,1084.23C932.65,1097.34 898.335,1091.4 878.559,1069.75C859.059,1048.42 855.958,1017.28 869.418,991.937C873.001,985.176 930.588,925.188 944.526,910.898C950.779,904.486 951.027,904.29 951.027,904.29Z"
         style="fill:none;stroke:rgb(147,147,147);stroke-width:3.13px;" />
   </g>
</svg>