<?xml version="1.0" encoding="UTF-8" standalone="no"?>
<!DOCTYPE svg PUBLIC "-//W3C//DTD SVG 1.1//EN" "http://www.w3.org/Graphics/SVG/1.1/DTD/svg11.dtd">
<svg width="100%" height="100%" viewBox="0 0 1800 1800" version="1.1" xmlns="http://www.w3.org/2000/svg"
   xmlns:xlink="http://www.w3.org/1999/xlink" xml:space="preserve" xmlns:serif="http://www.serif.com/"
   style="fill-rule:evenodd;clip-rule:evenodd;stroke-linecap:round;stroke-linejoin:round;stroke-miterlimit:1.5;">
   <rect id="invitation" x="0" y="0" width="1800" height="1800" style="fill:none;" />
   <g>
      <g id="page-2-front">
         <path
            d="M743.156,120.172C745.564,137.423 758.13,204.288 763.69,217.64C765.004,220.772 774.388,237.322 774.767,237.948C780.561,247.416 786.369,256.877 792.192,266.33C799.22,277.692 809.268,287.063 818.79,296.255C821.921,299.252 826.277,302.003 829.67,305.514C839.083,315.176 924.459,385.269 950.575,416.268C964.395,432.669 975.027,445.783 982.47,455.609C1004.08,484.058 1017.74,507.049 1037.35,541.022C1042.31,549.611 1048.06,561.621 1054.58,577.053C1058.87,587.207 1063.59,599.657 1068.74,614.403C1076.16,635.68 1083.47,656.995 1090.68,678.346C1090.75,678.555 1091.26,680.456 1092.21,684.049C1093.41,688.552 1095.66,691.363 1098.98,692.481C1103.05,692.66 1107.5,691.758 1112.33,689.775C1116.72,687.971 1120.13,687.158 1122.55,687.337C1136.06,688.366 1149.11,695.456 1155.69,707.488C1155.76,707.612 1155.84,707.732 1155.91,707.85C1157.52,710.307 1160.83,710.97 1163.25,709.318C1163.36,709.242 1163.47,709.161 1163.58,709.076C1164.79,708.092 1165.84,706.907 1166.73,705.52C1167.19,704.789 1167.79,704.67 1168.5,705.162C1169.42,705.803 1169.87,706.653 1169.86,707.712C1169.79,715.048 1173.91,714.693 1179.49,713.236C1201.11,707.592 1220.55,715.458 1229.27,736.563C1231.4,741.716 1232.37,747.269 1233.52,752.711C1234.92,759.242 1240.83,756.647 1245.01,756.066C1245.74,755.977 1246.04,756.297 1245.91,757.028C1244.7,764.05 1241.78,769.503 1251.47,771.945C1282.93,779.876 1286.54,808.917 1279.14,836.47C1278.41,839.173 1279.39,842.075 1281.77,843.492C1284,844.819 1286.39,845.632 1288.95,845.93C1291.05,846.184 1291.35,847.071 1289.87,848.592C1285.34,853.229 1282.47,859.264 1286,860.513C1298.47,864.93 1316.53,919.188 1286.04,938.903C1284.09,940.16 1284.32,943.269 1285.75,945.121C1285.75,945.121 1291,951.212 1289.65,953.589C1288.29,955.965 1275.7,956.422 1277.63,959.38C1280.33,963.502 1287.57,987.776 1281.1,1001.09C1276.72,1010.1 1258.31,1025.53 1245.91,1027.93C1241.37,1028.82 1247.79,1041.46 1245.8,1042.99C1243.84,1044.48 1239.95,1041.85 1237.77,1041.76C1234.74,1041.62 1232.12,1044.02 1231.9,1047.13C1231.11,1058.18 1226.14,1072.51 1215.73,1079.5C1202.87,1088.14 1190.73,1090.42 1176.08,1084.55C1175.55,1084.33 1174.98,1084.22 1174.41,1084.22C1172.48,1084.22 1171.27,1085.59 1170.65,1087.46L1168.75,1092.84C1168.61,1093.32 1168.16,1093.65 1167.67,1093.65C1167.22,1093.65 1166.96,1093.28 1166.63,1092.97C1163.71,1090.31 1160.03,1088.7 1156.99,1090.12C1153.88,1091.56 1151.05,1098.66 1147.97,1101.66C1135.31,1113.87 1121.19,1115.48 1105.61,1106.49C1102.88,1104.92 1100.33,1105.37 1097.97,1107.83C1094.25,1108.56 1092.31,1111.68 1092.14,1117.2C1092.12,1117.92 1091.91,1118.58 1091.53,1119.19C1089.76,1122.01 1089.91,1125.21 1088.8,1127.91C1087.25,1131.64 1086.08,1135.5 1085.29,1139.48C1084.79,1141.98 1083.26,1144.46 1082.38,1147.46C1079.52,1157.15 1075.11,1169.79 1069.14,1185.37C1062.25,1203.4 1052.75,1224.06 1040.63,1247.35C1033.43,1261.19 1022.79,1284.81 1010.91,1302.32C1008.52,1305.85 1006.64,1310.26 1003.95,1313.99C993.131,1328.96 983.74,1344.88 973.976,1355.48C966.796,1363.24 960.661,1369.14 954.362,1377.78C949.596,1384.32 816.369,1506.79 811.325,1510.68C793.452,1524.46 768.652,1568.6 767.018,1574.62C766.711,1575.77 755.758,1622.3 752.154,1642.07C749.395,1657.15 747.316,1682.02 742.587,1701.01C740.967,1707.51 738.121,1711.94 733.24,1717.94C730.109,1721.83 727.592,1726.75 724.965,1730.15C721.039,1735.2 716.88,1739.62 712.487,1743.41C710.42,1745.2 709.226,1747.82 709.225,1750.57C709.225,1750.57 710.149,1798.62 709.507,1798.62L-0,1800L-0,-0L708.952,0.223C708.952,0.223 709.32,33.14 709.729,48.871C709.785,50.599 710.384,52.262 711.436,53.612C728.139,74.927 739.282,92.394 743.156,120.172Z"
            style="fill:rgb(45,49,58);fill-rule:nonzero;" />
         <path d="M118.925,984.506L861.075,978.446" style="fill:none;stroke:white;stroke-width:7.18px;" />
         <path d="M118.925,1190.27L861.075,1184.21" style="fill:none;stroke:white;stroke-width:7.18px;" />
         <g transform="matrix(1.69462,0,0,1.69462,-372.885,-328.978)">
            <path
               d="M411.896,412.299C411.896,408.093 413.068,404.818 415.411,402.474C417.755,400.131 421.018,398.959 425.201,398.959C429.49,398.959 432.794,400.11 435.114,402.413C437.434,404.715 438.594,407.94 438.594,412.088C438.594,415.1 438.087,417.569 437.074,419.497C436.06,421.424 434.596,422.924 432.68,423.996C430.764,425.068 428.377,425.604 425.518,425.604C422.612,425.604 420.207,425.141 418.303,424.216C416.399,423.29 414.855,421.825 413.671,419.822C412.488,417.818 411.896,415.311 411.896,412.299ZM419.858,412.334C419.858,414.936 420.342,416.805 421.308,417.941C422.275,419.078 423.59,419.646 425.254,419.646C426.965,419.646 428.289,419.089 429.226,417.976C430.164,416.863 430.632,414.865 430.632,411.983C430.632,409.557 430.143,407.785 429.165,406.666C428.186,405.547 426.859,404.988 425.184,404.988C423.578,404.988 422.29,405.556 421.317,406.693C420.344,407.829 419.858,409.71 419.858,412.334ZM442.847,399.399L456.082,399.399C458.965,399.399 461.124,400.084 462.559,401.455C463.994,402.826 464.712,404.777 464.712,407.308C464.712,409.909 463.93,411.942 462.366,413.407C460.801,414.871 458.414,415.604 455.203,415.604L450.845,415.604L450.845,425.165L442.847,425.165L442.847,399.399ZM450.845,410.384L452.795,410.384C454.33,410.384 455.408,410.117 456.029,409.584C456.65,409.051 456.961,408.368 456.961,407.536C456.961,406.728 456.691,406.042 456.152,405.48C455.613,404.917 454.6,404.636 453.112,404.636L450.845,404.636L450.845,410.384ZM468.86,399.399L490.197,399.399L490.197,404.9L476.839,404.9L476.839,408.995L489.23,408.995L489.23,414.25L476.839,414.25L476.839,419.33L490.584,419.33L490.584,425.165L468.86,425.165L468.86,399.399ZM494.925,399.399L502.36,399.399L512.061,413.653L512.061,399.399L519.566,399.399L519.566,425.165L512.061,425.165L502.412,411.016L502.412,425.165L494.925,425.165L494.925,399.399ZM535.491,449.156C535.498,449.167 419.701,449.065 411.095,448.86C408.928,448.805 406.389,448.374 403.477,447.568C372.339,438.955 366.567,399.099 393.122,381.331C398.768,377.557 405.384,375.657 412.972,375.63C455.023,375.486 497.077,375.415 539.135,375.415C548.998,375.415 555.751,375.948 559.395,377.014C572.457,380.828 582.833,392.383 585.222,405.979C585.304,406.43 585.133,406.56 584.709,406.368L580.567,404.451C580.11,404.242 579.757,403.852 579.593,403.374C575.731,392.192 568.475,384.987 557.826,381.761C554.894,380.873 550.892,380.425 545.82,380.418C501.11,380.411 456.4,380.408 411.69,380.408C408.142,380.415 404.52,381.231 400.822,382.858C373.077,395.09 375.24,433.747 404.328,442.595C407.158,443.456 410.87,443.884 415.463,443.877C432.052,443.856 539.502,444.171 539.502,444.171C539.767,444.199 539.958,444.556 539.781,444.768L535.491,449.156ZM557.524,415.974C557.838,416.895 557.338,417.911 556.416,418.224L556.3,418.264C555.379,418.578 554.363,418.078 554.049,417.157L550.52,406.79C550.207,405.869 550.707,404.853 551.628,404.54L551.744,404.5C552.665,404.187 553.681,404.686 553.995,405.608L557.524,415.974ZM568.935,418.21C568.638,418.817 568.018,419.204 567.342,419.204C567.072,419.204 566.805,419.142 566.562,419.023L566.451,418.969C565.844,418.671 565.458,418.052 565.458,417.376C565.458,417.105 565.52,416.839 565.639,416.596L570.483,406.707C570.781,406.1 571.4,405.713 572.076,405.713C572.347,405.713 572.614,405.775 572.857,405.894L572.967,405.948C573.574,406.246 573.96,406.865 573.96,407.541C573.96,407.812 573.899,408.079 573.78,408.322L568.935,418.21ZM548.654,424.955C548.222,425.834 547.143,426.201 546.265,425.769L536.403,420.916C535.794,420.616 535.407,419.994 535.407,419.315C535.407,419.042 535.47,418.773 535.59,418.527L535.645,418.417C536.077,417.539 537.155,417.172 538.033,417.604L547.895,422.457C548.504,422.756 548.891,423.379 548.891,424.057C548.891,424.331 548.829,424.6 548.708,424.845L548.654,424.955ZM586.944,421.962C587.008,422.148 587.041,422.343 587.041,422.54C587.041,423.295 586.559,423.971 585.845,424.217L575.452,427.795C574.532,428.112 573.515,427.616 573.198,426.696L573.164,426.599C573.1,426.413 573.068,426.218 573.068,426.021C573.068,425.266 573.55,424.59 574.264,424.344L584.657,420.765C585.577,420.449 586.594,420.945 586.911,421.865L586.944,421.962ZM547.944,435.084C548.007,435.269 548.04,435.463 548.04,435.658C548.04,436.409 547.56,437.081 546.85,437.326L536.497,440.891C536.312,440.954 536.118,440.987 535.923,440.987C535.172,440.987 534.5,440.507 534.255,439.797L534.202,439.642C534.138,439.458 534.106,439.263 534.106,439.068C534.106,438.317 534.585,437.645 535.295,437.401L545.649,433.836C545.833,433.772 546.027,433.74 546.223,433.74C546.973,433.74 547.646,434.219 547.89,434.929L547.944,435.084ZM550.699,454.87C550.269,455.755 549.186,456.13 548.301,455.7L548.209,455.656C547.323,455.226 546.948,454.143 547.378,453.258L552.117,443.5C552.547,442.614 553.629,442.239 554.514,442.669L554.607,442.714C555.492,443.144 555.867,444.227 555.437,445.112L550.699,454.87ZM588.128,483.41C588.128,483.41 587.936,483.245 587.745,483.06C580.386,475.878 573.219,474.368 563.455,470.091C560.564,468.819 558.175,466.359 558.544,463.016C559.087,458.013 566.264,457.685 569.863,458.915C569.891,458.924 569.919,458.929 569.948,458.929C570.095,458.929 570.215,458.809 570.215,458.662C570.215,458.61 570.2,458.559 570.171,458.515C565.393,451.106 560.673,443.614 556.011,436.041C554.022,432.811 552.484,428.258 555.919,425.306C562.163,419.954 569.473,432.575 572.201,436.399C572.285,436.52 572.423,436.592 572.571,436.592C572.68,436.592 572.785,436.553 572.867,436.481C575.143,434.479 577.809,433.812 580.864,434.482C581.234,434.564 581.572,434.496 581.88,434.277C584.511,432.404 587.43,431.898 590.636,432.76C590.943,432.842 591.223,432.79 591.476,432.606C602.775,424.359 611.996,443.644 615.325,454.097C615.484,454.597 615.756,455.514 615.756,455.514L613.194,458.06C613.194,458.06 612.473,455.568 612.072,454.064C610.288,447.379 607.29,443.146 601.37,436.358C599.265,433.939 596.798,433.378 593.968,434.677C593.537,434.868 593.455,435.159 593.722,435.548L597.095,440.429C597.559,441.097 597.444,442.019 596.828,442.551L596.623,442.736C596.611,442.746 596.599,442.756 596.586,442.766C596.139,443.117 595.48,443.033 595.126,442.582C595.116,442.569 595.106,442.555 595.096,442.541L591.261,437.056C590.43,435.868 588.985,435.263 587.56,435.507L585.571,435.835C584.005,436.102 583.684,436.881 584.607,438.173L589.098,444.458C589.409,444.888 589.342,445.491 588.944,445.842L588.616,446.14C587.871,446.803 587.208,446.728 586.627,445.914L581.633,438.952C580.512,437.38 579.05,436.933 577.245,437.609L576.281,437.978C574.532,438.635 574.186,439.732 575.246,441.27L580.844,449.38C580.85,449.388 580.855,449.396 580.861,449.404C581.304,450.082 581.115,451.002 580.442,451.443C580.433,451.449 580.423,451.455 580.413,451.461L580.126,451.625C579.664,451.913 579.049,451.775 578.763,451.317C573.513,443.054 567.73,435.19 561.415,427.725C561.408,427.717 561.401,427.709 561.394,427.701C560.615,426.806 559.241,426.706 558.35,427.481C558.342,427.487 558.335,427.493 558.328,427.5L558.011,427.777C556.839,428.814 556.566,430.556 557.365,431.909C563.81,442.811 569.928,452.486 575.717,460.935C576.21,461.659 576.336,462.285 576.097,462.811C575.801,463.461 575.032,463.766 574.364,463.498C571.596,462.37 564.019,459.735 562.009,463.067C561.454,463.983 561.697,465.184 562.563,465.805C566.326,468.501 571.052,469.927 575.318,471.608C581.6,474.087 585.163,476.189 590.038,480.726C590.216,480.891 590.417,481.09 590.417,481.09L588.128,483.41Z"
               style="fill:white;" />
         </g>
         <path
            d="M214.603,733.35L214.603,610.759L232.165,610.759L232.165,733.35L214.603,733.35ZM248.521,733.35L248.521,610.759L265.395,610.759L291.91,684.624L292.255,684.624L292.255,610.759L309.817,610.759L309.817,733.35L293.288,733.35L266.428,659.658L266.084,659.658L266.084,733.35L248.521,733.35ZM385.23,610.759L360.092,733.35L344.596,733.35L319.631,610.759L338.226,610.759L352.172,696.332L352.517,696.332L366.635,610.759L385.23,610.759ZM396.25,733.35L396.25,610.759L413.812,610.759L413.812,733.35L396.25,733.35ZM442.393,733.35L442.393,627.288L422.076,627.288L422.076,610.759L480.272,610.759L480.272,627.288L459.955,627.288L459.955,733.35L442.393,733.35ZM470.63,733.35L498.006,610.759L512.641,610.759L540.017,733.35L522.455,733.35L517.29,707.007L493.357,707.007L488.192,733.35L470.63,733.35ZM514.019,690.478L505.41,646.056L505.066,646.056L496.457,690.478L514.019,690.478ZM550.692,733.35L550.692,627.288L530.376,627.288L530.376,610.759L588.571,610.759L588.571,627.288L568.255,627.288L568.255,733.35L550.692,733.35ZM596.836,733.35L596.836,610.759L614.398,610.759L614.398,733.35L596.836,733.35ZM630.41,639.685C630.41,634.75 631.271,630.388 632.993,626.6C634.715,622.812 637.011,619.655 639.88,617.13C642.635,614.72 645.763,612.883 649.264,611.62C652.765,610.358 656.294,609.726 659.853,609.726C663.411,609.726 666.941,610.358 670.442,611.62C673.943,612.883 677.128,614.72 679.998,617.13C682.752,619.655 684.991,622.812 686.712,626.6C688.434,630.388 689.295,634.75 689.295,639.685L689.295,704.424C689.295,709.589 688.434,714.009 686.712,717.682C684.991,721.355 682.752,724.397 679.998,726.807C677.128,729.332 673.943,731.226 670.442,732.489C666.941,733.752 663.411,734.383 659.853,734.383C656.294,734.383 652.765,733.752 649.264,732.489C645.763,731.226 642.635,729.332 639.88,726.807C637.011,724.397 634.715,721.355 632.993,717.682C631.271,714.009 630.41,709.589 630.41,704.424L630.41,639.685ZM647.973,704.424C647.973,708.671 649.149,711.799 651.502,713.808C653.855,715.816 656.639,716.821 659.853,716.821C663.067,716.821 665.85,715.816 668.203,713.808C670.556,711.799 671.733,708.671 671.733,704.424L671.733,639.685C671.733,635.438 670.556,632.31 668.203,630.302C665.85,628.293 663.067,627.288 659.853,627.288C656.639,627.288 653.855,628.293 651.502,630.302C649.149,632.31 647.973,635.438 647.973,639.685L647.973,704.424ZM704.102,733.35L704.102,610.759L720.976,610.759L747.491,684.624L747.835,684.624L747.835,610.759L765.397,610.759L765.397,733.35L748.868,733.35L722.009,659.658L721.664,659.658L721.664,733.35L704.102,733.35Z"
            style="fill:white;" />
         <g id="flower">
            <path id="flower-shade-2"
               d="M1088.73,716.151C1105.57,690.178 1140.01,690.219 1155.44,717.626C1155.31,720.895 1156.12,723.887 1157.88,726.603C1146.58,737.158 1137.02,743.288 1131.77,759.1C1131.31,760.454 1131.41,761.94 1132.05,763.214C1142.14,783.39 1138.85,813.041 1134.4,834.651C1130.88,851.773 1127.11,869.372 1123.07,887.449C1122.17,891.522 1121.27,891.522 1120.37,887.449C1117.64,875.218 1114.65,861.968 1111.4,847.7C1105.57,822.08 1100.35,787.92 1111.59,761.822C1111.84,761.259 1111.88,760.618 1111.71,760.014C1106.84,742.955 1097.04,736.95 1085.46,726.499C1088.18,723.132 1089.28,719.683 1088.73,716.151ZM1124.15,787.484C1123.81,788.038 1123.33,788.266 1122.7,788.169C1116.48,787.214 1114.51,780.835 1118.73,775.931C1119.17,775.42 1119.89,775.245 1120.53,775.494C1120.9,775.633 1121.25,775.744 1121.57,775.827C1123.91,776.339 1124.75,775.425 1124.11,773.084L1121.29,762.944C1120.73,760.936 1120.12,760.922 1119.47,762.903C1107.76,798.933 1115.09,836.355 1120.84,874.172C1120.96,874.989 1121.08,874.989 1121.18,874.172C1125.01,844.77 1130.52,815.95 1127.47,785.759C1127.45,785.587 1127.39,785.422 1127.3,785.275C1126.98,784.753 1126.3,784.588 1125.8,784.909C1125.65,785.002 1125.53,785.13 1125.44,785.281L1124.15,787.484ZM1119.22,793.323C1119.35,792.796 1119.75,792.375 1120.27,792.221C1121.91,791.75 1123.2,792.381 1124.13,794.112C1129.41,804.169 1123.83,837.082 1122.15,848.407C1121.6,852.036 1121.12,852.029 1120.71,848.386C1119.43,836.75 1118.33,824.206 1117.4,810.756C1117.05,805.644 1117.65,799.833 1119.22,793.323ZM1120.98,709.751C1121.55,709.294 1122.11,709.308 1122.66,709.793C1132.21,718.312 1132.93,731.776 1128.08,743.101C1127.02,745.594 1126.28,748.856 1127.24,751.038C1127.98,752.7 1128.61,752.659 1129.12,750.913C1132.39,739.915 1138.6,731.028 1147.77,724.255C1148.48,723.729 1148.67,722.723 1148.2,721.969C1142.34,712.619 1134.07,706.96 1123.38,704.993C1122.67,704.854 1122.11,704.487 1121.72,703.892C1120.23,701.689 1117.76,701.176 1114.31,702.354C1104.57,705.706 1097.3,711.51 1092.5,719.766C1092.06,720.528 1092.17,721.186 1092.82,721.74C1103.75,731.153 1111.55,738.093 1113.27,753.365C1113.44,755.055 1113.95,755.166 1114.8,753.698L1116.05,751.516C1116.84,750.123 1116.97,748.444 1116.42,746.945C1110.1,729.726 1111.62,717.328 1120.98,709.751ZM1144.56,805.914C1144.5,806.081 1144.42,806.184 1144.31,806.226C1144.16,806.268 1143.96,806.24 1143.72,806.143C1143.48,806.046 1143.37,805.866 1143.39,805.603C1144.92,789.091 1145.72,777.829 1145.8,771.817C1145.95,761.386 1148.5,749.23 1155.36,741.106C1155.99,740.372 1156.89,739.95 1157.85,739.95C1159.28,739.95 1160.55,740.891 1160.99,742.27C1166.9,761.178 1150.88,786.133 1144.56,805.914ZM1097.14,766.103C1097.93,778.916 1098.92,791.425 1100.11,803.629C1100.45,807.175 1099.97,807.293 1098.68,803.982C1094.49,793.26 1089.86,781.756 1084.78,769.469C1081.19,760.811 1080.42,751.862 1082.45,742.623C1082.5,742.414 1082.56,742.21 1082.65,742.014C1083.35,740.412 1085.22,739.679 1086.79,740.392C1086.99,740.479 1087.17,740.586 1087.34,740.711C1093.87,745.386 1096.69,758.539 1097.14,766.103ZM1242.94,775.869C1246.87,776.339 1250.57,777.579 1254.03,779.588C1257.33,781.499 1263.96,784.408 1267.11,788.689C1278.92,804.716 1281.49,822.295 1274.8,841.425C1274.72,841.665 1274.67,841.917 1274.67,842.172C1274.67,843.156 1275.32,844.026 1276.26,844.292L1287.14,847.368C1287.71,847.527 1288.1,848.053 1288.1,848.649C1288.1,848.992 1287.97,849.323 1287.74,849.57L1279.8,858.048C1278.9,859.012 1278.93,860.557 1279.88,861.476C1301.86,883.003 1302.22,917.433 1279.51,938.606C1278.71,939.364 1278.63,940.642 1279.35,941.474L1287.06,950.512C1287.31,950.81 1287.45,951.189 1287.45,951.581C1287.45,952.301 1286.98,952.942 1286.3,953.151L1275.97,956.247C1274.71,956.621 1274.3,957.439 1274.72,958.699C1279.04,971.582 1280.31,987.623 1274.25,1000.24C1272.78,1001.5 1272.94,1003.08 1271.24,1004.12C1269.85,1004.97 1268.45,1004.52 1267.05,1002.77C1273.39,987 1274.58,974.657 1269.18,958.99C1269.15,958.917 1269.12,958.847 1269.08,958.782C1268.78,958.297 1268.14,958.151 1267.65,958.457C1267.59,958.497 1267.53,958.543 1267.48,958.595C1266.6,959.482 1265.52,960.244 1264.22,960.881C1262.22,960.452 1260.9,958.505 1260.27,955.042C1264.33,951.939 1268.72,949.73 1273.45,948.414C1274.45,948.137 1274.62,947.597 1273.96,946.793C1265.57,936.466 1263.06,925.059 1251.43,915.75C1252.27,914.088 1253.49,912.785 1255.12,911.844C1264.24,915.459 1269.89,925.1 1274.48,933.329C1274.64,933.64 1274.97,933.835 1275.32,933.835C1275.57,933.835 1275.81,933.735 1275.99,933.557C1296.29,914.482 1295.61,885.766 1275.87,866.692C1275.69,866.523 1275.45,866.429 1275.21,866.429C1274.89,866.429 1274.59,866.59 1274.41,866.858L1265.27,881.029C1262.55,880.627 1261.17,878.473 1261.13,874.567L1274.25,853.476C1274.34,853.333 1274.39,853.166 1274.39,852.995C1274.39,852.632 1274.17,852.304 1273.84,852.167C1270.67,850.879 1267.56,850.297 1264.69,848.24C1259.28,844.348 1253.5,841.155 1247.36,838.661C1246.79,836.417 1248.08,834.748 1251.23,833.654C1257.31,834.956 1262.72,837.629 1267.46,841.674C1267.65,841.844 1267.9,841.937 1268.15,841.937C1268.6,841.937 1269.01,841.648 1269.15,841.217C1277.91,816.22 1269.67,785.24 1241.33,778.923C1241.26,777.801 1241.8,776.783 1242.94,775.869ZM967.732,800.699L974.71,790.725C975.133,790.13 975.699,789.832 976.408,789.832C977.499,789.818 978.27,789.34 978.72,788.398C979.075,787.622 979.498,787.581 979.989,788.273C980.685,789.229 980.896,790.718 980.624,792.741C970.16,807.313 968.141,823.5 974.566,841.3C974.742,841.778 975.195,842.097 975.697,842.097C976.008,842.097 976.306,841.975 976.531,841.757C981.428,836.937 987.226,834.215 993.925,833.591C995.384,834.492 995.862,836.293 995.357,838.994C986.333,842.734 979.068,849.342 969.798,852.105C969.541,852.185 969.365,852.428 969.365,852.701C969.365,852.813 969.394,852.923 969.451,853.019L982.772,875.523C983.536,880.232 982.533,882.539 979.764,882.442L969.307,867.045C969.112,866.765 968.794,866.599 968.456,866.599C968.205,866.599 967.962,866.691 967.773,866.858C948.046,884.665 947.821,915.293 967.404,933.349C967.645,933.569 967.957,933.69 968.28,933.69C968.759,933.69 969.201,933.423 969.43,932.996C973.768,924.913 979.355,915.895 987.908,911.968C989.668,912.328 990.678,913.942 990.937,916.81C979.969,926.139 978.209,936.923 969.819,946.419C969.612,946.649 969.496,946.95 969.496,947.261C969.496,947.81 969.854,948.298 970.371,948.455C975.214,949.993 979.368,952.092 982.834,954.751C981.933,958.034 980.569,959.953 978.741,960.507C977.718,959.468 976.742,958.838 975.815,958.616C975.064,958.436 974.566,958.713 974.321,959.447C968.168,977.566 970.446,994.279 981.156,1009.59C981.374,1011.15 982.186,1012.54 983.591,1013.74C983.85,1013.96 983.864,1014.2 983.632,1014.45L983.161,1014.95C982.888,1015.22 982.622,1015.22 982.363,1014.95L977.022,1009.3C976.654,1008.91 976.381,1008.46 976.203,1007.97C975.671,1006.51 974.178,1005.77 971.722,1005.74C970.508,1003.79 969.812,1001.97 969.635,1000.28C969.567,999.612 969.396,998.982 969.123,998.386C962.575,984.61 964.335,971.935 969.123,957.868C969.328,957.259 969.123,956.871 968.509,956.704L957.275,953.733C954.833,953.082 954.478,951.821 956.211,949.951L964.458,941.079C964.459,941.077 964.461,941.075 964.463,941.073C964.87,940.632 964.853,939.936 964.427,939.531C964.424,939.527 964.42,939.524 964.417,939.521C946.846,922.676 942.316,902.438 950.829,878.806C952.698,873.583 957.139,867.675 964.151,861.081C964.792,860.486 964.812,859.862 964.212,859.211L954.41,848.947C954.35,848.885 954.297,848.817 954.252,848.744C953.898,848.176 954.075,847.407 954.644,847.042C954.713,846.998 954.785,846.961 954.86,846.931C957.93,845.754 960.788,845.144 963.434,845.103C965.467,844.812 967.159,844.32 968.509,843.627C969.023,843.362 969.347,842.824 969.347,842.239C969.347,841.759 969.128,841.304 968.755,841.009C967.063,839.68 966.402,837.913 966.77,835.711C966.906,834.921 966.777,834.173 966.381,833.467C965.44,831.791 964.86,830.156 964.642,828.563C963.373,818.312 964.403,809.024 967.732,800.699ZM1259.27,892.416C1268.36,886.972 1277.77,890.67 1283.95,898.857C1284.33,899.356 1284.38,900.051 1284.05,900.602C1278.16,910.576 1266.88,914.212 1257.08,906.711C1261.52,902.057 1262.25,897.292 1259.27,892.416ZM985.698,907.438C975.733,913.61 965.583,910.493 960.201,901.558C959.328,900.104 959.471,898.774 960.631,897.569C967.957,889.908 975.685,888.087 983.816,892.104C982.274,897.188 982.902,902.299 985.698,907.438ZM1098.82,1062.84C1104.82,1056.43 1109.11,1049.18 1111.69,1041.11C1112.05,1040.01 1111.98,1038.83 1111.51,1037.78C1096.9,1005.1 1109.36,961.795 1117.38,926.555C1117.39,926.513 1117.84,924.816 1118.71,921.464C1119.7,917.696 1120.31,913.104 1120.51,907.688L1120.51,907.678C1120.51,907.496 1120.66,907.346 1120.84,907.346C1120.97,907.346 1121.1,907.433 1121.14,907.563C1122.19,909.766 1123.01,912.127 1123.58,914.649C1127.39,931.59 1131.04,948.566 1134.55,965.577C1139.19,988.205 1141.85,1016.84 1131.81,1038.43C1131.52,1039.05 1131.47,1039.77 1131.68,1040.42C1134.25,1048.62 1138.39,1055.89 1144.12,1062.24C1144.44,1066.02 1143.07,1068.33 1140.01,1069.18C1135.33,1064.25 1132.08,1056.86 1130.25,1047.03C1129.96,1045.46 1129.51,1045.41 1128.88,1046.86L1127.26,1050.64C1126.7,1051.92 1126.72,1053.38 1127.3,1054.63C1133.1,1067.39 1133.57,1080.07 1123.33,1090.52C1122.54,1091.34 1121.21,1091.35 1120.39,1090.54C1110.03,1080.21 1110.61,1067.45 1116.25,1054.8C1116.83,1053.51 1116.88,1052.04 1116.4,1050.73L1114.88,1046.68C1114.31,1045.18 1113.86,1045.21 1113.53,1046.78C1111.28,1057.45 1107.61,1065.28 1102.52,1070.28C1099.66,1068.87 1098.42,1066.39 1098.82,1062.84ZM1126.38,1015.49C1126.46,1015.54 1126.56,1015.57 1126.66,1015.57C1126.89,1015.57 1127.1,1015.39 1127.14,1015.15C1131.66,986.709 1124.28,957.556 1121.35,929.422C1121.08,926.763 1120.74,926.756 1120.35,929.401C1115.33,963.915 1106.84,1006.01 1120.37,1038.84C1120.61,1039.42 1120.84,1039.41 1121.04,1038.8L1125.67,1024.67C1125.88,1024.02 1125.67,1023.76 1125.01,1023.88L1120.49,1024.75C1119.68,1024.91 1119.01,1024.68 1118.46,1024.07C1116.27,1021.55 1116.01,1018.71 1117.69,1015.55C1119.3,1012.52 1122.19,1012.5 1126.38,1015.49ZM1122.72,956.871C1122.8,959.136 1123.78,961.172 1124.03,963.478C1125.32,975.862 1128.2,993.877 1124.3,1005.7C1123.58,1007.86 1121.78,1008.42 1119.9,1007.43C1119.21,1007.07 1118.8,1006.5 1118.65,1005.74C1115.74,990.033 1118.61,968.299 1120.57,952.549C1121.3,946.717 1121.94,946.724 1122.52,952.57C1122.58,953.387 1122.65,954.821 1122.72,956.871ZM1155.42,1023.09C1159.72,1033.36 1165.82,1048.4 1160.19,1058.64C1159.65,1059.63 1158.63,1060.25 1157.52,1060.25C1156.56,1060.25 1155.65,1059.78 1155.07,1059C1150.28,1052.51 1147.58,1045.42 1146.97,1037.72C1145.84,1023.53 1144.68,1009.7 1143.49,996.205C1143.1,991.813 1143.61,991.702 1145.03,995.872C1147.85,1004.2 1151.31,1013.27 1155.42,1023.09ZM1085.81,1028.2C1090.7,1016.79 1095.13,1005.73 1099.09,995.02C1100.26,991.876 1100.66,991.973 1100.29,995.311C1099.07,1006.57 1098.16,1018.33 1097.57,1030.57C1097.1,1040.26 1094.87,1054.51 1086.32,1060.18C1085.8,1060.51 1085.13,1060.44 1084.7,1060.02C1078.07,1053.66 1082.53,1035.85 1085.81,1028.2Z"
               style="fill:rgb(246,204,113);" />
            <path id="flower-shade-1"
               d="M1154.01,1084.42C1146.52,1097.79 1124.86,1111.92 1103.2,1098.91L1101.05,1098.39C1100.34,1098.23 1099.76,1097.86 1099.31,1097.29L1088.32,1083.77C1087.86,1083.18 1087.34,1083.13 1086.77,1083.6C1083.96,1085.95 1081.64,1088.6 1079.83,1091.54C1077.78,1094.82 1076.34,1094.57 1075.49,1090.79L1072.93,1079.42C1072.78,1078.79 1072.42,1078.61 1071.85,1078.9C1042.36,1094.01 1017.62,1067.68 1013.92,1039.47C1013.87,1039.03 1013.5,1038.7 1013.06,1038.7C1012.96,1038.7 1012.85,1038.72 1012.75,1038.76L1001.54,1043.25C1001.41,1043.3 1001.27,1043.33 1001.13,1043.34C1000.36,1043.4 999.675,1042.81 999.62,1042.04C999.609,1041.89 999.621,1041.75 999.654,1041.61L1002.89,1026.85C1003.04,1026.17 1002.77,1025.8 1002.09,1025.73C989.443,1024.32 978.761,1016.03 971.722,1005.74C974.178,1005.77 975.671,1006.51 976.203,1007.97C976.381,1008.46 976.654,1008.91 977.022,1009.3L982.363,1014.95C982.622,1015.22 982.888,1015.22 983.161,1014.95L983.632,1014.45C983.864,1014.2 983.85,1013.96 983.591,1013.74C982.186,1012.54 981.374,1011.15 981.156,1009.59C987.963,1015.74 995.603,1019.55 1004.07,1021.03C1005.4,1021.27 1006.1,1020.71 1006.18,1019.35C1006.92,1005.45 1008.7,992.714 1018.67,981.66C1019.93,980.274 1019.64,979.651 1017.78,979.789L1014.72,980.039C1012.9,980.169 1011.28,981.237 1010.42,982.865C1004.48,993.981 996.667,1001.21 983.673,997.306C981.872,996.766 981.115,995.547 981.401,993.649C983.516,980.253 991.346,973.327 1004.89,972.87C1005.58,972.857 1006.23,972.582 1006.71,972.101C1008.45,970.398 1009.78,968.403 1010.7,966.117C1010.75,966.015 1010.77,965.904 1010.77,965.793C1010.77,965.337 1010.4,964.962 1009.95,964.962C1009.85,964.962 1009.75,964.98 1009.66,965.016C998.379,968.978 988.072,967.475 978.741,960.507C980.569,959.953 981.933,958.034 982.834,954.751C991.605,961.054 1001,963.402 1011.03,961.795C1011.7,961.688 1012.32,961.325 1012.75,960.777C1015.8,956.808 1018.3,952.092 1021.49,948.746C1031.35,938.412 1042.09,930.752 1053.7,925.765C1067.04,920.03 1086.75,913.069 1112.82,904.883C1113.25,904.744 1113.67,904.737 1114.09,904.862C1114.29,904.925 1114.43,905.12 1114.43,905.34C1114.43,905.462 1114.39,905.581 1114.31,905.672C1091.74,931.334 1068.49,964.247 1036.06,977.379C1032.05,979 1028.04,978.917 1023.68,979.353C1023.03,979.418 1022.43,979.775 1022.04,980.33C1017.01,987.436 1013.66,995.214 1011.99,1003.66C1010.58,1010.89 1011.87,1020.99 1009.35,1030.01C1009.32,1030.12 1009.31,1030.23 1009.31,1030.34C1009.31,1031.01 1009.85,1031.57 1010.52,1031.57C1010.64,1031.57 1010.77,1031.55 1010.89,1031.51C1018.87,1028.89 1026.89,1029.33 1035.06,1027.83C1039.88,1026.93 1045.33,1023.7 1051.38,1018.15C1055.09,1014.74 1054.13,1009.02 1054.99,1005.2C1059.08,986.695 1065.73,971.561 1074.94,959.8C1088.44,942.554 1102.2,925.661 1116.19,909.122C1117.56,907.501 1117.97,907.722 1117.44,909.786C1112.54,928.57 1107.64,947.825 1102.73,967.551C1097.14,989.971 1087.36,1011.71 1070.05,1027.31C1069.56,1027.74 1069.25,1028.33 1069.17,1028.97C1068.34,1035.29 1068.42,1041.49 1069.43,1047.57C1070.97,1056.9 1077.21,1067.54 1080.12,1078.07C1080.31,1078.71 1080.65,1078.81 1081.14,1078.38L1098.82,1062.84C1098.42,1066.39 1099.66,1068.87 1102.52,1070.28L1093.11,1077.7C1091.99,1078.59 1091.8,1079.64 1092.54,1080.88C1095.29,1085.56 1098.72,1089.53 1102.83,1092.78C1111.32,1096.9 1121.21,1100 1129.7,1097.46C1138.94,1094.69 1147.63,1086.09 1151.47,1080.71C1151.47,1080.71 1152,1078.97 1150.78,1078.07C1146.86,1075.22 1143.27,1072.25 1140.01,1069.18C1143.07,1068.33 1144.44,1066.02 1144.12,1062.24L1162.46,1078.42C1163.06,1078.95 1163.46,1078.83 1163.65,1078.05C1166.82,1065.73 1174.62,1054.78 1174.74,1041.92C1174.76,1038.01 1176.03,1029.45 1172.9,1026.58C1153.74,1009.09 1145.37,986.272 1139.07,960.839C1134.8,943.676 1130.56,926.804 1126.34,910.223C1125.71,907.799 1126.19,907.542 1127.78,909.454C1153.46,940.684 1185.13,971.062 1189.82,1014.07C1189.94,1015.19 1190.43,1016.22 1191.21,1017C1196.49,1022.38 1202.57,1025.99 1209.44,1027.85C1215.52,1029.49 1224.61,1029.06 1232.24,1031.09C1232.33,1031.12 1232.42,1031.13 1232.52,1031.14C1233.23,1031.17 1233.85,1030.6 1233.89,1029.86C1233.9,1029.76 1233.89,1029.67 1233.88,1029.58C1233.2,1025.25 1232.32,1021.45 1232.49,1016.9C1232.98,1004.1 1229.72,992.416 1222.72,981.847C1221.03,979.27 1219.02,978.771 1216.13,978.792C1198.31,978.958 1175.74,957.889 1163.38,944.32C1151.98,931.798 1141.05,919.338 1130.6,906.94C1128.89,904.917 1129.29,904.308 1131.79,905.111C1149.45,910.818 1167.49,917.163 1185.91,924.144C1198.31,928.84 1209.9,936.487 1220.68,947.084C1224.55,950.886 1227.35,955.956 1230.64,960.59C1231.05,961.172 1231.61,961.532 1232.32,961.671C1242.31,963.444 1251.62,961.234 1260.27,955.042C1260.9,958.505 1262.22,960.452 1264.22,960.881C1254.48,967.918 1244.41,969.213 1234,964.767C1231.69,963.769 1231.27,964.309 1232.73,966.387L1236.68,972.018C1237.05,972.54 1237.65,972.856 1238.3,972.87C1252.02,973.189 1259.99,980.108 1262.22,993.628C1262.46,995.11 1261.9,996.135 1260.54,996.703C1247.2,1002.25 1239.26,993.545 1232.96,982.574C1232.1,981.094 1230.58,980.136 1228.88,980.018L1225.79,979.789C1223.86,979.651 1223.56,980.302 1224.89,981.743C1234.72,992.236 1237.19,1005.93 1237.46,1019.58C1237.48,1020.41 1238.16,1021.08 1238.97,1021.08C1239.05,1021.08 1239.14,1021.07 1239.22,1021.06C1251.37,1019.03 1260.65,1012.94 1267.05,1002.77C1268.45,1004.52 1269.85,1004.97 1271.24,1004.12C1272.94,1003.08 1272.78,1001.5 1274.25,1000.24C1273,1006.16 1266.8,1010.75 1262.91,1015.15C1258.74,1019.92 1251.91,1023.31 1242.43,1025.32C1241.79,1025.46 1241.32,1026.03 1241.28,1026.71C1241.09,1031.14 1242.79,1034.85 1244.19,1039.01C1245.11,1041.72 1244.25,1042.57 1241.61,1041.57L1233.2,1039.38C1232.49,1039.12 1230.12,1038.37 1229.84,1038.37C1229.37,1038.37 1228.97,1038.74 1228.92,1039.22C1227.18,1055.66 1219.93,1068.45 1207.17,1077.59C1199.76,1082.89 1191.6,1083.29 1182.9,1082.39C1179.16,1082.02 1175.86,1080.07 1172.18,1078.67C1171.46,1078.41 1170.99,1078.65 1170.77,1079.4L1168.91,1088.4C1168,1091.38 1166.64,1091.6 1164.86,1089.06C1162.92,1086.29 1159.27,1085.3 1156.67,1083.2C1156.14,1082.78 1155.61,1082.76 1155.07,1083.16C1154.61,1083.51 1154.02,1084.42 1154.02,1084.42L1154.01,1084.42ZM1203.67,1064.77C1203.4,1065.52 1202.88,1065.81 1202.12,1065.63C1191.2,1063.04 1185.52,1055.74 1185.05,1043.75C1184.87,1039.26 1183.14,1035.95 1179.85,1033.84C1179.02,1033.28 1178.72,1033.5 1178.95,1034.5C1182.17,1048.13 1179.02,1059.2 1173.45,1071.49C1173.44,1071.51 1173.42,1071.54 1173.41,1071.57C1172.88,1072.84 1173.47,1074.33 1174.71,1074.86C1174.74,1074.87 1174.77,1074.88 1174.8,1074.89C1201.67,1085.45 1222.89,1066.48 1223.91,1039.57C1223.94,1038.56 1223.46,1038.09 1222.48,1038.18C1209.76,1039.2 1199.7,1034.6 1192.28,1024.38C1191.25,1022.97 1190.6,1023.13 1190.31,1024.86C1189.12,1032.17 1197.74,1035.81 1200.77,1040.34C1205.87,1047.97 1206.84,1056.12 1203.67,1064.77ZM1077.8,923.625C1053.21,932.684 1031.72,946.585 1017.27,969.234C1016.8,969.968 1016.53,970.508 1016.48,970.855C1016.37,971.741 1016.74,972.101 1017.6,971.935C1031.28,969.345 1043.59,964.067 1054.52,956.102C1058.44,953.234 1062.3,950.27 1066.08,947.209C1078.62,937.048 1089.88,924.415 1101.58,913.485C1102.47,912.668 1102.38,912.536 1101.32,913.09C1093.79,917.107 1085.95,920.619 1077.8,923.625ZM1048.44,953.879C1046.57,954.751 1045.53,955.201 1045.33,955.229C1040.28,955.672 1039.42,953.955 1042.75,950.076C1052.02,939.25 1069.76,931.645 1081.51,925.827C1086.39,923.417 1086.75,923.985 1082.59,927.531C1072.24,936.404 1061.13,947.977 1048.44,953.879ZM1028.76,958.761C1029.29,955.676 1031.89,953.553 1034.57,954.024C1037.26,954.494 1039.01,957.381 1038.48,960.466C1037.96,963.551 1035.36,965.674 1032.67,965.203C1029.99,964.733 1028.24,961.846 1028.76,958.761ZM1111.4,920.342C1102.33,934.444 1093,948.345 1083.41,962.045C1070.97,979.817 1063.28,999.972 1060.33,1022.51C1060.15,1023.89 1060.6,1024.16 1061.68,1023.3C1080.32,1008.44 1090.76,985.607 1098,963.229C1102.42,949.612 1106.96,935.697 1111.63,921.485C1111.79,921.036 1111.75,920.538 1111.53,920.113L1111.51,920.093L1111.51,920.113C1111.48,920.196 1111.44,920.273 1111.4,920.342ZM1065.76,1002.93C1065.91,999.637 1068.21,997.076 1070.89,997.209C1073.56,997.342 1075.6,1000.12 1075.44,1003.41C1075.29,1006.69 1072.99,1009.25 1070.31,1009.12C1067.64,1008.99 1065.6,1006.21 1065.76,1002.93ZM1073.96,992.444C1076.66,976.382 1089.14,959.572 1097.2,947.126C1100.41,942.18 1101,942.485 1098.98,948.04C1095.01,958.969 1090.49,970.307 1085.42,982.054C1083.67,986.099 1081.3,989.694 1078.3,992.838C1076.73,994.487 1075.34,994.591 1074.14,993.15C1073.97,992.954 1073.9,992.692 1073.96,992.444ZM1040.15,1064.48C1034.32,1051.31 1040.91,1040.67 1050.96,1032.17C1052.1,1031.22 1052.82,1029.83 1052.96,1028.33L1053.39,1023.47L1053.39,1023.39C1053.39,1023.04 1053.11,1022.75 1052.76,1022.75C1052.54,1022.75 1052.34,1022.86 1052.22,1023.05C1044.88,1034.11 1034.52,1039.13 1021.12,1038.12C1020.15,1038.03 1019.68,1038.48 1019.71,1039.47C1019.85,1044.58 1021.09,1049.83 1023.43,1055.22C1032.49,1076.01 1047.8,1082.49 1069.35,1074.66C1070,1074.44 1070.44,1073.81 1070.44,1073.11C1070.44,1072.9 1070.4,1072.68 1070.31,1072.48C1065.3,1059.95 1061.19,1049.4 1064.77,1034.6C1064.8,1034.47 1064.8,1034.34 1064.77,1034.2C1064.66,1033.79 1064.22,1033.53 1063.8,1033.65C1063.67,1033.68 1063.56,1033.75 1063.46,1033.84L1060.65,1036.47C1059.69,1037.38 1059.17,1038.68 1059.22,1040.01C1059.69,1052.67 1054.26,1061.21 1042.93,1065.65C1041.64,1066.14 1040.71,1065.76 1040.15,1064.48ZM1146.54,965.785C1154.25,988.101 1163.42,1007.63 1181.08,1022.49C1182.5,1023.68 1183.11,1023.35 1182.9,1021.49C1180.5,999.91 1172.9,979.949 1160.11,961.608C1150.82,948.31 1141.83,935.088 1133.16,921.942C1132.17,920.46 1131.94,920.571 1132.46,922.274C1136.79,936.653 1141.48,951.157 1146.54,965.785ZM1144.84,948.518C1142.38,942.326 1143.01,941.993 1146.7,947.52C1154.87,959.717 1166.41,976.527 1169.38,991.238C1169.51,991.959 1169.48,992.561 1169.27,993.046C1168.55,994.708 1166.94,994.418 1164.44,992.173C1164.23,991.98 1164.04,991.764 1163.87,991.529C1154.77,979.062 1150.24,962.128 1144.84,948.518ZM1168.09,1003.63C1167.76,1000.47 1169.67,997.671 1172.36,997.38C1175.04,997.089 1177.49,999.417 1177.82,1002.58C1178.15,1005.73 1176.24,1008.53 1173.56,1008.83C1170.88,1009.12 1168.43,1006.79 1168.09,1003.63ZM1164.46,923.396C1161.1,922.371 1153.76,918.977 1142.47,913.215C1142.43,913.193 1142.39,913.181 1142.34,913.181C1142.21,913.181 1142.1,913.294 1142.1,913.431L1142.1,914.025C1142.11,914.136 1142.16,914.226 1142.24,914.295C1147.54,918.382 1151.14,921.492 1153.07,923.625C1174.62,947.375 1196.45,966.865 1226.74,971.81C1226.76,971.814 1226.79,971.816 1226.82,971.816C1227.13,971.816 1227.39,971.554 1227.39,971.234C1227.39,971.13 1227.36,971.028 1227.31,970.938C1213.19,947.853 1190.13,931.209 1164.46,923.396ZM1185.48,948.372C1176.31,940.546 1167.79,933.245 1159.92,926.472C1157.45,924.324 1157.69,923.937 1160.64,925.308C1171.98,930.544 1192.4,939.479 1200.46,949.577C1204.16,954.218 1203.12,955.97 1197.35,954.834C1195,954.356 1187.1,949.744 1185.48,948.372ZM1205.12,959.991C1204.89,956.788 1206.9,954.028 1209.61,953.831C1212.31,953.634 1214.69,956.075 1214.91,959.278C1215.14,962.481 1213.13,965.241 1210.43,965.437C1207.72,965.634 1205.34,963.194 1205.12,959.991ZM1053.78,716.463L1071.75,718.914C1072.14,718.97 1072.39,719.191 1072.48,719.579L1072.67,720.369C1072.93,721.394 1073.18,721.394 1073.42,720.369L1076.35,707.798C1076.45,707.35 1076.85,707.031 1077.31,707.031C1077.64,707.031 1077.95,707.203 1078.13,707.486L1080.53,711.185L1080.59,711.247C1083.72,714.253 1086.44,715.888 1088.73,716.151C1089.28,719.683 1088.18,723.132 1085.46,726.499C1084.11,725.474 1082.92,724.068 1081.9,722.281C1081.73,721.986 1081.43,721.803 1081.09,721.803C1080.7,721.803 1080.34,722.064 1080.22,722.447C1078.56,727.434 1077.27,731.839 1074.73,736.826C1069.36,747.423 1067.55,758.92 1069.31,771.318C1069.41,772.024 1069.71,772.62 1070.21,773.105C1087.28,789.271 1097.49,810.299 1102.97,833.155C1107.67,852.701 1112.39,871.63 1117.15,889.943C1117.88,892.7 1117.37,892.963 1115.64,890.732C1089.86,857.528 1059.37,831.119 1053.74,786.05C1053.61,785.023 1053.15,784.056 1052.45,783.286C1048.14,778.66 1042.94,775.28 1036.86,773.147C1029.74,770.653 1021.67,771.692 1014.1,769.822C1012.9,769.531 1011.64,769.296 1010.32,769.115C1009.61,769.019 1009.34,769.33 1009.52,770.051C1010.84,775.37 1011.48,782.351 1011.42,790.995C1011.37,801.094 1015.1,810.818 1022.61,820.168C1023.02,820.681 1023.55,820.972 1024.19,821.041C1028.02,821.498 1032.05,821.415 1035.55,822.745C1066.02,834.443 1088.75,865.009 1109.46,889.507C1111.08,891.432 1112.61,893.011 1114.04,894.244C1115.57,895.56 1115.38,895.913 1113.47,895.304C1094.1,889.181 1074.61,882.449 1055.01,875.107C1037.87,868.707 1023.94,856.995 1013.22,839.97C1012.84,839.375 1012.3,839.008 1011.61,838.869C1006.43,837.816 1001.02,837.858 995.357,838.994C995.862,836.293 995.384,834.492 993.925,833.591C999.641,832.857 1004.78,833.474 1009.33,835.441C1011.18,836.244 1011.59,835.766 1010.58,834.007L1008.27,829.955C1007.5,828.594 1006.14,827.677 1004.61,827.482C1000.39,826.963 995.316,826.506 991.633,824.033C985.098,819.628 981.729,813.485 981.524,805.603C981.483,804.065 982.206,803.158 983.693,802.881C998.815,800.096 1004.69,807.639 1011.36,818.963C1011.93,819.953 1012.97,820.564 1014.1,820.563L1019.18,820.626C1020.23,820.639 1020.38,820.265 1019.65,819.504C1008.29,807.764 1007.33,795.899 1006.02,780.211C1005.95,779.342 1005.23,778.664 1004.37,778.664C1004.26,778.664 1004.16,778.674 1004.05,778.694C995.023,780.412 987.213,785.094 980.624,792.741C980.896,790.718 980.685,789.229 979.989,788.273C979.498,787.581 979.075,787.622 978.72,788.398C978.27,789.34 977.499,789.818 976.408,789.832C975.699,789.832 975.133,790.13 974.71,790.725L967.732,800.699C970.733,791.736 975.931,784.949 983.325,780.336C985.146,779.214 988.461,779.318 990.998,777.78C994.586,775.591 998.515,774.587 1002.78,774.767C1003.63,774.795 1003.86,774.428 1003.46,773.666L1002.72,772.232C1002.41,771.623 1002.21,770.972 1002.11,770.279C1001.82,767.855 1000.94,764.918 999.47,761.469C998.652,759.557 998.87,758.047 1000.12,756.939C1000.52,756.593 1000.96,756.517 1001.46,756.711L1012.34,761.157C1013.31,761.545 1013.87,761.213 1014.02,760.16C1017.17,737.968 1030.06,718 1053.78,716.463ZM1091.84,821.623C1083.49,800.907 1076,789.312 1061.8,776.72C1060.46,775.543 1059.92,775.841 1060.18,777.614C1061.41,786.029 1062.74,794.943 1065.46,802.922C1075.33,831.825 1097.82,859.149 1110.89,878.66C1111.1,878.951 1111.31,878.965 1111.53,878.702C1111.69,878.508 1111.71,878.251 1111.59,877.933C1104.02,858.359 1100.33,842.692 1091.84,821.623ZM1065.85,797.108C1065.86,793.908 1068.05,791.318 1070.72,791.328C1073.4,791.337 1075.56,793.943 1075.55,797.142C1075.54,800.342 1073.36,802.932 1070.68,802.922C1068.01,802.913 1065.84,800.307 1065.85,797.108ZM1095.24,841.737C1097.11,846.626 1098.68,851.239 1099.96,855.575C1100.77,858.346 1100.41,858.505 1098.9,856.053C1093.27,846.994 1087.31,837.276 1081.02,826.901C1077.51,821.11 1075.36,815.881 1074.57,811.213C1073.51,805.007 1075.13,804.169 1079.44,808.699C1085.56,815.161 1090.08,828.189 1095.24,841.737ZM1039.95,735.35C1040.1,734.816 1040.63,734.486 1041.15,734.602C1055.89,737.844 1058.12,748.794 1059.82,762.072C1060.02,763.665 1061.38,765.174 1063.89,766.601C1064.54,766.975 1064.79,766.788 1064.62,766.04C1061.11,750.581 1065.28,740.836 1070.4,727.808C1070.47,727.616 1070.51,727.412 1070.51,727.205C1070.51,726.542 1070.11,725.944 1069.5,725.709C1041.46,714.967 1022.47,733.356 1019.36,760.991C1019.36,761.033 1019.35,761.074 1019.35,761.116C1019.35,761.663 1019.8,762.114 1020.34,762.114C1020.34,762.114 1020.35,762.113 1020.36,762.113C1033.17,761.905 1044.82,765.355 1051.75,776.575C1052.65,778.016 1053.1,777.884 1053.08,776.18L1053.06,771.837C1053.06,770.158 1052.25,768.575 1050.89,767.599C1039.91,759.689 1036.26,748.939 1039.95,735.35ZM1064.15,870.494C1075.48,875.301 1086.71,880.322 1097.86,885.559C1098.98,886.099 1100.87,887.761 1102.5,888.447C1103.73,888.959 1103.9,888.71 1103.01,887.699C1100.07,884.353 1096.02,881.673 1093.32,878.909C1070.4,855.471 1049.61,832.926 1017.13,828.397C1017.02,828.38 1016.91,828.384 1016.8,828.409C1016.31,828.522 1015.99,829.035 1016.11,829.547C1016.13,829.655 1016.17,829.758 1016.23,829.851C1028.3,848.497 1044.28,862.044 1064.15,870.494ZM1082.74,872.884C1086.11,875.807 1085.79,876.305 1081.79,874.38C1073.83,870.536 1043.63,856.656 1041.44,847.451C1041.4,847.284 1041.38,847.113 1041.38,846.942C1041.38,845.745 1042.35,844.76 1043.53,844.76C1043.71,844.76 1043.9,844.784 1044.08,844.833C1057.48,848.531 1072.85,864.364 1082.74,872.884ZM1028.74,841.005C1028.43,837.798 1030.36,834.981 1033.03,834.72C1035.71,834.458 1038.13,836.85 1038.43,840.057C1038.73,843.265 1036.81,846.082 1034.13,846.343C1031.46,846.605 1029.04,844.213 1028.74,841.005ZM1155.44,717.626C1159.3,714.994 1162.04,712.625 1163.67,710.52C1167.11,706.032 1168.63,706.544 1168.25,712.058C1168.06,714.939 1168.88,717.515 1170.73,719.787C1170.94,720.064 1171.25,720.024 1171.53,720.016C1172.44,719.988 1174.67,719.837 1176.23,719.621C1178.3,719.333 1179.96,719.122 1183.95,718.291C1209.28,712.972 1225.98,738.529 1229.23,760.846C1229.37,761.801 1229.89,762.134 1230.81,761.843L1241.45,758.331C1241.55,758.296 1241.66,758.279 1241.77,758.279C1242.35,758.279 1242.82,758.757 1242.82,759.338C1242.82,759.405 1242.81,759.471 1242.8,759.537L1240.24,773.126C1240.09,773.943 1240.38,774.539 1241.1,774.913L1242.94,775.869C1241.8,776.783 1241.26,777.801 1241.33,778.923C1240.44,778.604 1239.54,778.459 1238.62,778.487C1237.99,778.508 1237.47,779.033 1237.46,779.671C1237.13,795.109 1234.74,807.577 1224.61,819.15C1223.8,820.078 1224.01,820.556 1225.24,820.584L1229.39,820.626C1230.5,820.639 1231.55,820.074 1232.16,819.129C1239.28,808.013 1245.6,798.6 1260.34,803.338C1261.88,803.843 1262.81,805.488 1262.44,807.099C1259.19,821.374 1252.64,825.779 1239.48,827.42C1237.65,827.642 1236.25,828.556 1235.27,830.163L1232.87,834.111C1231.84,835.829 1232.23,836.286 1234.04,835.482C1238.98,833.307 1244.71,832.698 1251.23,833.654C1248.08,834.748 1246.79,836.417 1247.36,838.661L1233.16,838.433C1231.96,838.422 1230.83,839.055 1230.21,840.095C1216.87,862.245 1195,874.172 1171.22,881.673C1157.28,886.078 1143.72,890.684 1130.56,895.491C1129.17,896.003 1128.95,895.692 1129.92,894.556C1151.04,869.85 1184.13,822.953 1219.35,820.896C1220.57,820.83 1221.7,820.192 1222.4,819.171C1226.09,813.727 1228.8,807.791 1230.52,801.364C1232.87,792.554 1231.69,780.648 1234.16,769.988C1234.33,769.309 1234.07,769.039 1233.38,769.178C1217.71,772.357 1203.65,769.573 1190.7,783.931C1190.25,784.415 1189.98,784.99 1189.9,785.655C1186.9,808.803 1178.71,828.549 1165.33,844.895C1152.47,860.59 1139.99,875.8 1127.88,890.525C1126.1,892.672 1125.59,892.395 1126.34,889.694C1131.42,871.492 1136.08,852.798 1140.34,833.612C1145.37,810.943 1156.91,788.897 1173.45,772.856C1173.95,772.385 1174.25,771.803 1174.33,771.11C1175.23,764.226 1175.06,757.473 1173.82,750.851C1172.2,742.186 1166.25,732.504 1163.71,722.53C1163.69,722.459 1163.66,722.39 1163.63,722.327C1163.41,721.94 1162.91,721.806 1162.52,722.031C1162.46,722.065 1162.41,722.107 1162.36,722.156L1157.88,726.603C1156.12,723.887 1155.31,720.895 1155.44,717.626ZM1133.03,874.941C1131.04,880.509 1131.63,880.807 1134.79,875.834C1144.49,860.687 1157.14,844.874 1165.61,830.391C1175.39,813.727 1181.55,796.128 1183.19,777.448C1183.31,776.132 1182.88,775.903 1181.88,776.762C1152.96,801.551 1145.37,840.531 1133.03,874.941ZM1168.03,796.807C1168.18,793.611 1170.5,791.121 1173.21,791.251C1175.91,791.381 1177.99,794.081 1177.84,797.277C1177.69,800.473 1175.38,802.962 1172.67,802.833C1169.96,802.703 1167.88,800.003 1168.03,796.807ZM1166.65,818.693C1159.92,832.172 1152.58,844.389 1144.64,855.347C1142.97,857.66 1142.62,857.473 1143.59,854.786C1147.89,842.997 1152.71,830.973 1158.06,818.714C1160.28,813.616 1163.26,809.294 1166.98,805.748C1167.22,805.527 1167.53,805.404 1167.85,805.404C1168.51,805.404 1169.06,805.93 1169.11,806.6C1169.37,810.867 1168.55,814.898 1166.65,818.693ZM1140.36,887.533C1139,888.724 1139.12,888.925 1140.75,888.135C1159.88,878.889 1184.17,870.432 1199.09,859.793C1210.26,851.828 1219.67,841.785 1227.31,829.664C1227.35,829.593 1227.38,829.516 1227.4,829.434C1227.51,829.014 1227.27,828.583 1226.86,828.479C1226.78,828.458 1226.7,828.451 1226.61,828.459C1189.8,831.638 1165.41,865.798 1140.36,887.533ZM1161.03,874.712C1160.84,874.809 1160.6,874.996 1160.31,875.273C1160.01,875.592 1159.72,875.716 1159.43,875.647C1159.14,875.577 1158.93,875.307 1158.93,875C1158.93,874.811 1159.01,874.63 1159.14,874.504C1167.82,866.969 1176.49,859.655 1185.15,852.562C1189.18,849.279 1194.32,845.892 1199.54,845.04C1199.9,844.979 1200.28,845.003 1200.63,845.109C1201.92,845.498 1202.67,846.905 1202.28,848.228C1202.18,848.587 1202,848.918 1201.75,849.196C1191.66,860.666 1174.6,868.125 1161.03,874.712ZM1205.15,840.133C1205.43,836.981 1207.86,834.629 1210.56,834.883C1213.26,835.138 1215.21,837.903 1214.93,841.054C1214.64,844.206 1212.21,846.558 1209.52,846.304C1206.82,846.05 1204.86,843.285 1205.15,840.133ZM1203.35,735.641C1208.22,748.254 1203.1,758.955 1193.44,767.204C1191.29,769.032 1190.15,771.962 1190.23,774.476C1190.32,777.122 1191.16,777.378 1192.73,775.245C1200.5,764.627 1210.81,762.321 1223.21,762.051C1223.72,762.04 1224.14,761.612 1224.14,761.095L1224.14,761.053C1222.64,734.436 1202.4,715.133 1175.19,725.023C1175.15,725.035 1175.12,725.048 1175.09,725.061C1173.62,725.656 1172.89,727.365 1173.47,728.847C1173.48,728.882 1173.5,728.916 1173.51,728.95C1179.1,741.688 1181.92,751.017 1179.18,766.435C1179.03,767.225 1179.27,767.377 1179.91,766.892C1182.67,764.745 1184.11,762.646 1184.23,760.596C1184.95,748.108 1188.41,738.571 1201.52,734.748C1202.26,734.523 1203.05,734.912 1203.35,735.641ZM1207.4,809.551C1198.57,816.546 1190.05,823.528 1181.84,830.495C1180.76,831.41 1180.6,831.264 1181.35,830.059C1187.32,820.418 1193.21,810.541 1199.01,800.429C1203.22,793.032 1211.92,780.938 1221.17,782.289C1221.84,782.386 1222.23,782.774 1222.36,783.453C1224.12,793.697 1214.6,803.836 1207.4,809.551ZM1062.6,830.475C1062.66,830.555 1062.69,830.655 1062.68,830.757C1062.67,830.985 1062.48,831.161 1062.27,831.147C1062.17,831.141 1062.07,831.093 1062.01,831.015C1053.51,823.396 1044.56,815.895 1035.18,808.512C1030.51,804.834 1018.67,791.951 1021.41,785.385C1022.77,782.116 1025,781.333 1028.08,783.037C1033.54,786.057 1037.92,790.095 1041.24,795.151C1048.81,806.621 1055.21,819.088 1062.6,830.475ZM988.379,864.302C982.649,859.004 984.9,852.708 992.595,852.708C1000.15,852.708 1007.23,854.723 1013.84,858.754C1023.21,864.475 1032.57,869.732 1041.93,874.525C1042.06,874.588 1042.13,874.718 1042.13,874.86C1042.13,875.065 1041.97,875.234 1041.77,875.234C1041.75,875.234 1041.74,875.233 1041.73,875.232C1026.33,873.846 1013.03,872.295 1001.84,870.577C996.769,869.788 992.206,867.834 988.379,864.302ZM1236.07,855.887C1241.65,853.019 1251.39,850.775 1256.8,854.619C1256.82,854.638 1256.85,854.658 1256.88,854.677C1258.9,856.185 1259.36,859.114 1257.88,861.165C1257.86,861.193 1257.84,861.221 1257.82,861.248C1253.66,866.802 1247.75,870.051 1240.1,870.993C1227.27,872.586 1214.72,874.02 1202.44,875.294C1201.19,875.433 1201.11,875.183 1202.2,874.546C1213.43,867.966 1224.72,861.746 1236.07,855.887ZM1261.13,874.567C1261.17,878.473 1262.55,880.627 1265.27,881.029C1260.96,885.891 1255.64,889.223 1249.31,891.023C1249.19,891.055 1249.08,891.102 1248.98,891.164C1248.4,891.523 1248.2,892.3 1248.55,892.886C1248.61,892.989 1248.68,893.083 1248.77,893.164C1251.52,895.754 1255.02,895.505 1259.27,892.416C1262.25,897.292 1261.52,902.057 1257.08,906.711C1253.68,904.342 1250.91,904.585 1248.75,907.438C1248.61,907.629 1248.53,907.862 1248.53,908.102C1248.53,908.53 1248.78,908.921 1249.16,909.101L1255.12,911.844C1253.49,912.785 1252.27,914.088 1251.43,915.75C1247.42,913.963 1243.39,909.973 1238.83,912.654C1223.91,921.422 1200.05,919.635 1183.9,915.812C1163.05,910.867 1148.83,904.259 1130.7,901.163C1130.13,901.066 1129.68,900.678 1129.37,900C1129.34,899.926 1129.33,899.848 1129.33,899.768C1129.33,899.46 1129.56,899.198 1129.86,899.169C1144.8,897.776 1159.74,890.338 1174.41,886.805C1198.64,880.967 1218.43,877.476 1241.04,888.571C1241.65,888.877 1242.36,888.907 1243,888.655C1250.3,885.787 1256.35,881.091 1261.13,874.567ZM1140.42,899.875C1139.83,899.972 1139.83,900.069 1140.42,900.166C1157.24,903.061 1174.12,906.171 1191.07,909.496C1198.72,911.005 1208.03,910.964 1218.98,909.371C1227.27,908.186 1234.08,905.257 1241.08,901.08C1241.15,901.037 1241.22,900.983 1241.29,900.922C1241.7,900.516 1241.7,899.833 1241.29,899.409C1241.23,899.349 1241.17,899.297 1241.1,899.252C1222.56,887.408 1200.3,889.361 1179.42,893.122C1166.55,895.435 1153.55,897.686 1140.42,899.875ZM1218.61,900.166C1218.57,896.886 1220.78,894.196 1223.53,894.161C1226.29,894.127 1228.56,896.762 1228.6,900.042C1228.64,903.321 1226.43,906.012 1223.67,906.046C1220.92,906.08 1218.65,903.445 1218.61,900.166ZM1213.29,902.202C1201.07,907.48 1180.53,902.992 1167.8,901.246C1164.2,900.748 1164.19,900.138 1167.76,899.418C1178.13,897.319 1202.24,893.018 1212.8,897.86C1213.55,898.206 1214.05,898.656 1214.29,899.21C1214.74,900.194 1214.48,901.143 1213.52,902.057C1213.46,902.125 1213.38,902.176 1213.29,902.202ZM982.772,875.523C987.465,880.925 993.024,885.205 999.45,888.364C1000.85,889.061 1002.5,888.974 1003.81,888.135C1028.88,872.198 1074.02,886.93 1099.88,896.26C1102.01,897.028 1113.8,899.127 1114.11,899.439C1114.24,899.591 1114.33,899.743 1114.37,899.896C1114.4,899.981 1114.41,900.069 1114.41,900.158C1114.41,900.581 1114.11,900.947 1113.7,901.018C1096.81,903.74 1080.28,910.514 1063.66,914.94C1047.54,919.22 1020.69,921.963 1005.67,913.049C1000.17,909.786 995.521,914.025 990.937,916.81C990.678,913.942 989.668,912.328 987.908,911.968C990.118,910.583 992.226,909.676 994.232,909.246C995.664,908.928 995.814,908.297 994.682,907.355L993.167,906.067C992.051,905.123 990.475,904.951 989.177,905.631L985.698,907.438C982.902,902.299 982.274,897.188 983.816,892.104C985.289,892.644 986.66,893.434 987.929,894.473C988.389,894.847 988.974,895.033 989.566,894.992C991.967,894.881 994.041,894.009 995.787,892.374C995.923,892.241 995.999,892.057 995.999,891.866C995.999,891.522 995.752,891.226 995.418,891.169C989.307,890.255 984.089,887.346 979.764,882.442C982.533,882.539 983.536,880.232 982.772,875.523ZM1072.71,905.984C1082.88,903.878 1092.87,901.953 1102.67,900.208C1103.42,900.083 1103.42,899.958 1102.67,899.833C1090.09,897.769 1077.66,895.615 1065.38,893.371C1043.59,889.403 1022.23,887.159 1002.76,899.169C1002.42,899.389 1002.21,899.774 1002.21,900.187C1002.21,900.599 1002.42,900.984 1002.76,901.205C1022.86,913.776 1047.15,911.262 1072.71,905.984ZM1014.98,899.76C1015.21,896.57 1017.66,894.152 1020.44,894.364C1023.23,894.577 1025.29,897.339 1025.06,900.53C1024.82,903.721 1022.37,906.138 1019.59,905.926C1016.81,905.714 1014.74,902.951 1014.98,899.76ZM1031.78,897.236C1045.57,893.87 1063.75,897.361 1077.74,899.356C1078.26,899.425 1078.64,899.605 1078.87,899.896C1078.9,899.934 1078.92,899.977 1078.94,900.022C1079.06,900.292 1078.95,900.611 1078.69,900.727C1078.65,900.749 1078.59,900.763 1078.54,900.769C1064.19,902.618 1045.37,907.168 1031.45,902.805C1029.33,902.14 1028.77,900.81 1029.8,898.815C1030.2,898.024 1030.92,897.447 1031.78,897.236ZM1256.88,938.752C1259.77,943.018 1258.91,945.858 1254.3,947.271C1248.76,948.961 1242.67,948.012 1236.03,944.424C1224.84,938.399 1213.69,932.456 1202.59,926.596C1200.06,925.253 1200.21,924.74 1203.04,925.059C1214.35,926.319 1226.37,927.649 1239.12,929.048C1246.4,929.838 1252.58,932.435 1256.88,938.752ZM1007.19,944.487C1001.58,947.25 991.08,950.346 986.271,944.902C984.603,943.027 984.639,940.127 986.353,938.295C991.237,933.058 997.083,930.046 1003.89,929.256C1016.74,927.788 1029.13,926.354 1041.07,924.955C1043.45,924.678 1043.58,925.107 1041.46,926.243C1030.35,932.29 1018.75,938.814 1007.19,944.487ZM1222.64,1016.82C1222.57,1017.54 1222.19,1017.97 1221.5,1018.11C1212.76,1019.75 1203.96,1007.88 1200.05,1001.25C1193.82,990.712 1187.57,980.441 1181.31,970.439C1180.27,968.791 1180.49,968.59 1181.96,969.837C1192.1,978.383 1202.51,987.304 1213.21,996.599C1218.92,1001.52 1223.4,1008.94 1222.64,1016.82ZM1062.64,969.691C1055,982.186 1048.52,992.901 1043.2,1001.84C1038.84,1009.15 1032.19,1017.23 1023.13,1018.29C1023.04,1018.3 1022.96,1018.31 1022.87,1018.31C1021.63,1018.31 1020.6,1017.26 1020.6,1016C1020.6,1015.94 1020.6,1015.88 1020.61,1015.82C1021.22,1008.3 1024.49,1001.93 1030.41,996.703C1040.93,987.408 1051.56,978.307 1062.31,969.4C1062.35,969.375 1062.39,969.361 1062.44,969.361C1062.56,969.361 1062.66,969.464 1062.66,969.59C1062.66,969.625 1062.65,969.66 1062.64,969.691Z"
               style="fill:rgb(228,172,98);" />
         </g>
         <g id="guest-name" transform="matrix(1.79351,0,0,1.79352,204.509,968.62)"><text x="150px" y="0px"
               text-anchor="middle"
               style="font-family: 'Roboto Condensed', sans-serif;font-size:50px;fill:rgb(226,169,44);">&nbsp;</text>
         </g>
         <g id="with-family" transform="matrix(1.79351,0,0,1.79352,199.168,1174.35)"><text x="150px" y="0px"
               text-anchor="middle"
               style="font-family: 'Roboto Condensed', sans-serif;font-size:50px;fill:rgb(226,169,44);">&nbsp;</text>
         </g>
      </g>
   </g>
</svg>